<svg xmlns="http://www.w3.org/2000/svg" viewBox="0 0 48 48" fill="none">
  <rect x="0.5" y="0.5" width="47" height="47" rx="13.5" fill="#05080f" stroke="rgba(100,116,139,0.35)" />
  <circle cx="10" cy="11" r="0.9" fill="#64748b" opacity="0.5" />
  <circle cx="38" cy="13" r="0.65" fill="#94a3b8" opacity="0.35" />
  <circle cx="36" cy="37" r="0.55" fill="#475569" opacity="0.45" />
  <circle cx="24" cy="8.5" r="0.75" fill="#e2e8f0" opacity="0.18" />
  <path d="M6.5 29l1.1-1.6 1.8 1.2-1.1 1.6-1.8-1.2z" fill="#64748b" opacity="0.28" />
  <path d="M40.5 7.5l0.45 1.05h1.1l-0.9 0.65 0.35 1.05-0.95-0.55-0.95 0.55 0.35-1.05-0.9-0.65h1.1z" fill="#fde68a" opacity="0.2" />
  <circle cx="17" cy="22" r="1.25" fill="#334155" />
  <circle cx="31" cy="22" r="1.25" fill="#334155" />
  <path d="M14.2 18.8c1.1-0.9 2.6-1.1 3.8-0.2" stroke="#1e293b" stroke-width="1.15" stroke-linecap="round" />
  <path d="M30 18.6c1.2-0.9 2.7-0.7 3.8 0.2" stroke="#1e293b" stroke-width="1.15" stroke-linecap="round" />
  <path d="M17.5 31.2c2.8 2.4 9.2 2.4 12 0" stroke="#64748b" stroke-width="1.4" stroke-linecap="round" opacity="0.92" />
  <path d="M14.8 25.2c0.2 1.8 1.1 3.1 1.6 3.1s0.2-1.9-0.5-3.4-1.1-1.2-1.1 0.3z" fill="#475569" opacity="0.42" />
</svg>
